HIERARCHY
ROOT hip
{
  OFFSET 0 0 0
  CHANNELS 6 Xposition Yposition Zposition Zrotation Yrotation Xrotation
  JOINT abdomen
  {
    OFFSET 0 20.6881 -0.73152
    CHANNELS 3 Zrotation Xrotation Yrotation
    JOINT chest
    {
      OFFSET 0 11.7043 -0.48768
      CHANNELS 3 Zrotation Xrotation Yrotation
      JOINT neck
      {
        OFFSET 0 22.1894 -2.19456
        CHANNELS 3 Zrotation Xrotation Yrotation
        JOINT head
        {
          OFFSET -0.24384 7.07133 1.2192
          CHANNELS 3 Zrotation Xrotation Yrotation
          JOINT leftEye
          {
            OFFSET 4.14528 8.04674 8.04672
            CHANNELS 3 Zrotation Xrotation Yrotation
            End Site
            {
              OFFSET 1 0 0
            }
          }
          JOINT rightEye
          {
            OFFSET -3.6576 8.04674 8.04672
            CHANNELS 3 Zrotation Xrotation Yrotation
            End Site
            {
              OFFSET 1 0 0
            }
          }
        }
      }
      JOINT rCollar
      {
        OFFSET -2.68224 19.2634 -4.8768
        CHANNELS 3 Zrotation Xrotation Yrotation
        JOINT rShldr
        {
          OFFSET -8.77824 -1.95073 1.46304
          CHANNELS 3 Zrotation Xrotation Yrotation
          JOINT rForeArm
          {
            OFFSET -28.1742 -1.7115 0.48768
            CHANNELS 3 Zrotation Xrotation Yrotation
            JOINT rHand
            {
              OFFSET -22.5879 0.773209 7.07136
              CHANNELS 3 Zrotation Xrotation Yrotation
              JOINT rThumb1
              {
                OFFSET -1.2192 -0.487915 3.41376
                CHANNELS 3 Zrotation Xrotation Yrotation
                JOINT rThumb2
                {
                  OFFSET -3.37035 -0.52449 3.41376
                  CHANNELS 3 Zrotation Xrotation Yrotation
                  End Site
                  {
                    OFFSET -1.78271 -1.18214 1.43049
                  }
                }
              }
              JOINT rIndex1
              {
                OFFSET -7.75947 0.938293 5.60832
                CHANNELS 3 Zrotation Xrotation Yrotation
                JOINT rIndex2
                {
                  OFFSET -2.54057 -0.884171 1.56538
                  CHANNELS 3 Zrotation Xrotation Yrotation
                  End Site
                  {
                    OFFSET -1.62519 -0.234802 1.16502
                  }
                }
              }
              JOINT rMid1
              {
                OFFSET -8.24714 1.18213 3.41376
                CHANNELS 3 Zrotation Xrotation Yrotation
                JOINT rMid2
                {
                  OFFSET -3.10165 -0.590103 1.0647
                  CHANNELS 3 Zrotation Xrotation Yrotation
                  End Site
                  {
                    OFFSET -2.48547 -0.328903 0.83742
                  }
                }
              }
              JOINT rRing1
              {
                OFFSET -8.82822 0.546677 1.51678
                CHANNELS 3 Zrotation Xrotation Yrotation
                JOINT rRing2
                {
                  OFFSET -2.60934 -0.819778 -0.0198488
                  CHANNELS 3 Zrotation Xrotation Yrotation
                  End Site
                  {
                    OFFSET -2.33842 -0.294052 0.168128
                  }
                }
              }
              JOINT rPinky1
              {
                OFFSET -8.27202 -0.0477905 -0.4584
                CHANNELS 3 Zrotation Xrotation Yrotation
                JOINT rPinky2
                {
                  OFFSET -1.82734 -0.647385 -0.700984
                  CHANNELS 3 Zrotation Xrotation Yrotation
                  End Site
                  {
                    OFFSET -1.69225 -0.51767 -0.607171
                  }
                }
              }
            }
          }
        }
      }
      JOINT lCollar
      {
        OFFSET 2.68224 19.2634 -4.8768
        CHANNELS 3 Zrotation Xrotation Yrotation
        JOINT lShldr
        {
          OFFSET 8.77824 -1.95073 1.46304
          CHANNELS 3 Zrotation Xrotation Yrotation
          JOINT lForeArm
          {
            OFFSET 28.1742 -1.7115 0.48768
            CHANNELS 3 Zrotation Xrotation Yrotation
            JOINT lHand
            {
              OFFSET 22.5879 0.773209 7.07136
              CHANNELS 3 Zrotation Xrotation Yrotation
              JOINT lThumb1
              {
                OFFSET 1.2192 -0.487915 3.41376
                CHANNELS 3 Zrotation Xrotation Yrotation
                JOINT lThumb2
                {
                  OFFSET 3.37035 -0.52449 3.41376
                  CHANNELS 3 Zrotation Xrotation Yrotation
                  End Site
                  {
                    OFFSET 1.78271 -1.18214 1.43049
                  }
                }
              }
              JOINT lIndex1
              {
                OFFSET 7.75947 0.938293 5.60832
                CHANNELS 3 Zrotation Xrotation Yrotation
                JOINT lIndex2
                {
                  OFFSET 2.54057 -0.884171 1.56538
                  CHANNELS 3 Zrotation Xrotation Yrotation
                  End Site
                  {
                    OFFSET 1.62519 -0.234802 1.16502
                  }
                }
              }
              JOINT lMid1
              {
                OFFSET 8.24714 1.18213 3.41376
                CHANNELS 3 Zrotation Xrotation Yrotation
                JOINT lMid2
                {
                  OFFSET 3.10165 -0.590103 1.0647
                  CHANNELS 3 Zrotation Xrotation Yrotation
                  End Site
                  {
                    OFFSET 2.48547 -0.328903 0.83742
                  }
                }
              }
              JOINT lRing1
              {
                OFFSET 8.82822 0.546677 1.51678
                CHANNELS 3 Zrotation Xrotation Yrotation
                JOINT lRing2
                {
                  OFFSET 2.60934 -0.819778 -0.0198488
                  CHANNELS 3 Zrotation Xrotation Yrotation
                  End Site
                  {
                    OFFSET 2.33842 -0.294052 0.168128
                  }
                }
              }
              JOINT lPinky1
              {
                OFFSET 8.27202 -0.0477905 -0.4584
                CHANNELS 3 Zrotation Xrotation Yrotation
                JOINT lPinky2
                {
                  OFFSET 1.82734 -0.647385 -0.700984
                  CHANNELS 3 Zrotation Xrotation Yrotation
                  End Site
                  {
                    OFFSET 1.69225 -0.51767 -0.607171
                  }
                }
              }
            }
          }
        }
      }
    }
  }
  JOINT rButtock
  {
    OFFSET -8.77824 4.35084 1.2192
    CHANNELS 3 Zrotation Xrotation Yrotation
    JOINT rThigh
    {
      OFFSET 0 -1.70687 -2.19456
      CHANNELS 3 Zrotation Xrotation Yrotation
      JOINT rShin
      {
        OFFSET 0 -36.8199 0.73152
        CHANNELS 3 Zrotation Xrotation Yrotation
        JOINT rFoot
        {
          OFFSET 0.73152 -45.1104 -5.12064
          CHANNELS 3 Zrotation Xrotation Yrotation
          End Site
          {
            OFFSET -1.1221 -3.69964 12.103
          }
        }
      }
    }
  }
  JOINT lButtock
  {
    OFFSET 8.77824 4.35084 1.2192
    CHANNELS 3 Zrotation Xrotation Yrotation
    JOINT lThigh
    {
      OFFSET 0 -1.70687 -2.19456
      CHANNELS 3 Zrotation Xrotation Yrotation
      JOINT lShin
      {
        OFFSET 0 -36.8199 0.73152
        CHANNELS 3 Zrotation Xrotation Yrotation
        JOINT lFoot
        {
          OFFSET -0.73152 -45.1104 -5.12064
          CHANNELS 3 Zrotation Xrotation Yrotation
          End Site
          {
            OFFSET 1.1221 -3.69964 12.103
          }
        }
      }
    }
  }
}
MOTION
Frames:	8
Frame Time:	0.03333
81.15400000000001 45.2924 -26.7816 -1.45722 29.874076 8.664485 -4.2023 8.252497 -152.89215 5.420617 7.26557 173.761013 -9.710754 28.50722 -97.165433 32.995272 18.365945 132.338526 0.000545 0.0 0.000763 0.000813 -0.0 -0.004959 -159.221525 -48.72512 170.566887 -36.920548 -26.772922 -34.08878 173.557978 -28.73865 -76.256752 -13.070145 39.3236 3.473637 93.028244 -51.082564 40.50122 -168.039302 -56.414543 137.485316 -162.92045 -37.92973 122.626768 -164.596891 -26.291092 118.856596 -167.374678 -28.008447 145.269833 -167.507318 -17.345216 143.842979 -145.099512 -1.521548 -178.651063 -66.696517 87.684714 80.087178 0.466162 1.226225 0.429109 -147.775572 13.052606 -144.026687 149.851137 22.601632 -154.913508 48.912821 33.007702 -20.464584 1.060667 -52.312811 146.323304 169.124493 3.791217 -141.470505 -88.928464 -50.831319 -37.599556 15.645938 -43.214168 30.24519 14.227926 19.2036 -9.559798 66.907499 48.56813 -49.655972 36.036566 51.722829 -29.832793 173.321922 -34.974888 -143.722324 72.352823 72.974861 -90.218083 76.641903 83.213357 -85.537876 -13.241219 45.352043 -10.921485 160.006361 53.202604 149.40787 179.992566 75.749614 0.006117 131.452258 0.764052 -89.480496 -111.168499 -8.091708 -59.582136 -131.914207 44.310613 -129.212071 -179.995809 75.751425 -0.002868 -140.502458 -12.354652 -82.910423 -98.315275 20.510141 145.3892 -91.207428 41.898305 -13.303043
81.4884 44.0523 -26.8968 -1.83255 29.916689 8.194309 -6.859456 9.215605 126.311295 -8.8564 4.364112 -104.448663 -5.91447 32.82669 -130.565354 24.22813 32.651559 163.673817 0.003943 -0.0 -0.000576 -0.001764 0.0 -0.000854 -155.446054 -3.134481 161.757763 -37.987963 27.847732 2.368408 89.231781 -36.623062 -107.757657 -162.54564 53.242848 137.520961 -168.111205 -5.789011 89.870091 -126.46979 10.86576 60.696171 -10.570214 15.013887 6.8646 9.227397 0.800341 -0.534252 -36.036823 51.723198 29.831649 -178.268002 -46.202993 141.973881 -0.009489 -0.87235 -0.273787 9.305004 12.721855 1.663354 -149.118868 25.571989 -145.201212 -81.53592 -52.528439 -80.768258 13.947438 42.750365 -15.78455 -168.153464 -41.338082 -111.425631 -150.864681 -18.47466 -14.780878 148.102608 42.441174 -123.839272 171.604175 -9.285973 -89.949609 34.750934 -26.989795 -4.722412 77.66743 43.029428 -64.538543 174.301026 -26.080382 -113.067938 22.288288 41.333469 -17.258069 42.023426 58.529362 -36.213451 73.164293 -72.141838 90.198422 65.10182 -82.36312 91.063706 -0.465321 1.226476 -0.428492 85.229977 -53.927066 84.726563 -179.999242 75.748979 -0.000783 129.2637 0.610816 -0.0 -176.080923 77.854656 -116.473944 -36.432467 19.563372 -62.10314 -179.999242 75.748979 -0.000783 -141.714455 -14.367598 72.548655 110.202854 11.261257 94.508213 -79.209573 34.278657 -169.783636
81.6978 42.8517 -27.0056 -2.112518 30.116753 7.598519 -2.531637 12.431797 -56.64919 9.241811 -8.743309 78.599339 -8.723206 29.939099 -107.531928 30.482684 23.179285 141.727848 0.001813 -0.0 -0.001602 -0.003891 0.0 -0.001894 4.238864 -44.742724 -8.648616 -108.618924 -40.138899 -153.201445 163.430052 -38.541273 -83.577375 -17.396227 48.017647 6.202257 -171.704571 -9.389176 89.948024 16.222995 -61.316731 16.284719 -46.208592 39.652451 36.318797 -161.983664 -7.275122 112.00067 -171.869525 -41.091301 145.160301 2.5435 1.615928 0.547024 -145.121161 1.893449 -179.724217 10.053476 -0.272397 -9.023665 -145.499558 13.103858 -142.110662 -24.204327 -39.109701 -25.592351 155.46013 -3.227903 -161.777201 35.644904 8.604552 4.718998 -149.277277 9.262969 54.136398 25.87716 29.424525 -7.286793 -175.878921 -21.257013 -88.492457 171.824526 -8.218905 -97.268056 77.668005 43.030303 -64.538156 -6.153234 -0.151838 4.440876 -173.11986 -66.297412 -137.610752 -17.481413 -40.926268 -0.011743 0.001408 -0.060926 0.018563 155.406096 -1.111171 -171.980819 14.646197 -27.214556 13.958867 158.216712 52.517192 149.717973 179.805961 75.749524 0.149555 129.299491 -1.759136 -90.873018 -114.859352 -8.502458 -70.442762 97.484398 -15.520314 167.986768 0.000239 0.000955 0.000239 100.661736 -51.09172 -77.292675 -144.105599 -66.74265 -73.080134 100.056673 -58.31411 171.558273
81.7996 41.7402 -27.1814 -2.483176 30.310376 6.941433 -2.508572 9.946087 -138.478659 7.803987 5.860612 159.559926 11.169609 28.522899 121.076819 -26.899117 22.042151 -79.457212 -0.002728 -0.0 0.005266 -0.002455 0.0 -0.000456 -158.467892 -30.055334 166.92069 -104.068311 -67.704042 -80.653457 -119.700752 -0.325946 -17.174375 30.690396 -54.843392 19.738502 -68.481482 37.954092 35.66025 26.489965 -26.243321 17.229827 -0.327562 0.530025 0.185463 -65.768373 48.400055 50.662025 -0.285972 0.832957 0.15922 3.095503 0.407766 0.02936 -145.098352 -1.605796 -178.622953 9.239979 -11.270066 -10.533204 31.495705 83.083552 6.663353 1.218494 -0.420762 -1.11892 -2.599961 -19.545378 3.91646 117.491659 -21.980908 -177.015532 173.563785 29.62851 72.878076 9.228483 -14.15826 4.65095 -2.015595 -2.000761 0.274242 -9.927237 -15.56641 9.31223 132.542243 13.160967 -110.91514 -0.877687 13.485621 6.018343 -0.235861 -0.689195 0.129728 170.279506 -26.251331 -144.301763 -0.001679 0.063765 -0.020075 155.856494 -8.256212 -172.844525 126.797168 -26.620673 124.514313 29.296679 -43.394867 31.042194 0.004593 -0.000819 0.002296 -81.187478 -36.702915 -76.936483 -168.074235 68.082095 -68.099221 -74.413831 -23.770452 -143.767471 -179.94903 75.750914 -0.041938 -139.336069 -17.26419 -0.0 177.258251 70.063848 57.686951 -47.546565 77.456597 151.027318
81.85050000000001 40.7808 -27.3959 -2.802099 30.320351 6.627607 -3.056925 9.886482 -162.722351 3.897258 8.614788 -175.771798 11.682905 26.213248 107.613513 -28.638506 15.325573 -67.212113 0.003177 -0.0 -0.0022 -0.003013 0.0 -0.002419 -150.01269 22.065443 155.097522 -146.024308 66.797227 109.756243 -107.544577 55.339311 -132.262178 3.106026 -5.980133 1.15856 88.928289 -50.830944 37.599894 -33.222582 5.221525 -8.01436 12.216794 -21.784733 -5.118334 -19.266033 35.813723 15.66762 -0.056853 0.16788 0.033462 29.35429 -60.226041 6.393087 0.005906 1.770367 0.556701 10.966374 -13.797343 -1.714842 -7.146057 -15.707224 -6.727317 36.462581 80.661341 0.27896 -0.163246 -0.990087 0.218051 -54.428019 8.862793 -17.437154 168.539283 28.736935 -31.130072 170.469603 0.08398 -142.266552 176.927471 -14.532512 -89.659076 138.529828 12.141918 -71.093098 -24.076862 -42.306172 5.557768 -125.957465 -63.502254 -64.679362 -10.38521 -32.499989 3.26182 -2.98332 0.388202 -0.062961 145.121029 1.973502 179.750774 150.495727 -35.141373 173.028537 -0.467043 1.226111 -0.428835 38.301809 -49.249684 38.591588 179.989286 75.749573 0.008816 126.215809 -3.687386 83.863368 116.666873 16.923993 130.995646 -135.889397 56.290045 -120.299208 -179.931355 75.749566 -0.052908 -139.926815 -20.403106 107.409197 118.851012 -22.233011 89.044697 162.277542 1.076535 162.275702
81.8303 39.9839 -27.5541 -2.838035 30.328748 6.650217 -2.219529 10.463996 -146.521612 7.04786 7.288749 167.725059 -4.294373 15.870143 -15.194042 15.453029 -17.810502 56.560249 0.000553 -0.0 -0.001018 0.000553 -0.0 -0.001018 -78.72826 68.390085 81.807851 72.025338 -38.225485 78.508535 77.944 38.55221 74.377639 -133.815264 71.139209 112.95206 114.539851 -50.245981 55.72084 -110.144845 34.633387 65.219846 -46.206691 39.653738 36.318325 -39.258373 43.710657 24.520239 -164.636929 -19.283672 144.734222 3.390612 -0.625394 0.274336 -145.119254 0.310978 -179.223943 12.112633 40.325552 -4.414572 26.961642 80.123515 10.147825 -85.872953 -53.04927 -84.320736 155.613463 -4.236428 -161.991115 37.710831 -11.800981 7.921902 -164.044169 5.851352 66.289049 17.373488 11.121901 -0.387424 121.364963 30.329389 -71.957378 135.061504 -12.914664 -70.601198 151.352826 -17.158877 -121.132258 -145.182962 -67.163109 -87.062148 160.740915 -6.876914 -143.276194 12.907433 35.22151 -10.501792 145.119473 0.18564 179.186244 54.87129 87.583915 -68.069089 46.800233 -48.626547 45.557708 -31.092861 74.893569 -4.335306 179.991061 75.749071 0.007355 127.270216 -3.868123 -6.55282 -159.124446 69.535892 -119.759747 -175.918752 13.375104 90.642936 -0.001811 0.000571 -0.001811 106.641804 -50.989035 -180.0 104.314544 -3.026528 -97.354478 84.540681 -15.259144 1.070806
81.7512 39.3425 -27.7059 -3.076026 30.422027 6.463396 -2.737383 15.184737 -12.198948 2.019583 -14.431722 34.166646 -6.528278 32.553933 -128.386942 24.781759 32.640166 162.089819 -0.000196 0.0 -0.002991 -0.000399 -0.0 0.002735 -2.80738 14.086112 3.511616 -74.410062 52.763934 125.794687 71.732028 85.021956 149.326583 168.172239 -19.87969 143.625267 -171.705052 -9.388692 89.949939 -177.166003 -13.754 93.060514 -151.352169 -17.158347 121.133938 -118.403135 45.95229 96.055371 153.674318 -76.484743 121.223774 -88.788558 63.845963 80.31746 -145.107323 3.760227 179.690246 -156.542474 63.695786 172.329158 -146.207442 15.405478 -142.73106 -163.755699 58.700009 -146.438427 -0.162944 -0.989988 0.219202 118.949391 -11.340381 -161.170185 -176.295134 24.453217 68.436932 12.359564 -3.932031 3.041626 5.762988 5.575579 -1.157669 66.155705 25.400715 -61.971381 -28.866385 -48.979909 4.341019 172.314427 -35.746722 -109.224175 -5.892882 -18.35204 2.543204 163.533313 -5.355135 -143.400971 4.6e-05 -0.060945 0.018473 150.465911 36.8425 -165.395653 116.538684 -37.22468 114.498316 152.250005 29.741125 145.649123 0.000547 0.00069 0.0 -86.531392 -38.266772 180.0 -115.696331 -12.687573 -162.100717 -81.737866 -37.013468 -149.660651 -179.995451 75.748952 -0.003112 -138.126808 -24.010758 -180.0 179.698331 -68.386348 -85.965569 39.002969 33.525611 59.357402
81.6678 38.8147 -27.8066 -3.386379 30.703453 6.362625 -2.256399 15.596608 -10.475612 1.519527 -14.721612 32.232552 6.926181 32.945732 155.420154 -17.080432 35.928376 -111.963089 0.002773 -0.0 -0.000674 0.002773 -0.0 -0.000674 -85.537707 68.182149 88.688808 58.744228 -38.289967 72.708666 18.505969 10.014687 107.709202 -17.356163 47.96821 6.178962 178.475578 -18.892546 89.01312 -77.672821 10.489912 23.879501 -83.733079 42.331411 69.989866 -176.340802 -29.314549 112.907091 -36.035702 51.723103 29.832565 3.333048 0.217883 0.097014 -145.122453 1.892904 -179.723412 -153.780991 -16.740695 -176.842522 -1.150412 -2.913755 -1.068434 -19.948087 -37.805381 -20.833839 158.468425 -30.055459 -166.920081 -162.30826 -3.060725 156.806387 -135.888796 69.602393 -79.750641 159.600025 26.166877 -134.147389 -17.492556 -17.281351 0.030644 141.438176 -42.880526 -127.899431 2.685979 4.226952 -1.583102 86.73069 47.220469 -67.55692 145.288279 29.524577 -132.692789 172.161488 -31.379852 -143.706796 73.6257 72.970756 -91.554827 -5.871523 1.78042 4.285935 -12.253892 41.4246 -10.281241 85.711614 -53.658233 84.495343 179.978434 75.751036 0.014756 125.285473 -6.425809 94.528302 106.804461 3.312663 -82.985103 110.414582 -26.676223 17.496384 -179.983372 75.750555 -0.011377 -136.814117 -24.632325 -113.944064 -107.169733 -14.500648 94.48145 -82.295084 0.05473 -14.492532
